<svg xmlns="http://www.w3.org/2000/svg" xmlns:xlink="http://www.w3.org/1999/xlink" version="1.1" x="0px" y="0px" viewBox="0 0 100 125" enable-background="new 0 0 100 100" xml:space="preserve"><path d="M36.543,22.52c5.039,0,9.139-4.1,9.139-9.139s-4.1-9.139-9.139-9.139s-9.139,4.1-9.139,9.139S31.504,22.52,36.543,22.52z   M36.543,6.242c3.937,0,7.139,3.202,7.139,7.139s-3.202,7.139-7.139,7.139s-7.139-3.202-7.139-7.139S32.606,6.242,36.543,6.242z   M52.531,61.492l-0.086-0.678l-0.03-0.125C51.468,57.378,48.46,55,45.263,55H30.244l5.254-17.098l3.021,3.073  C39.877,42.278,41.472,43,43.009,43h37.104l11.8-18.364c0.299-0.465,0.164-1.084-0.3-1.382c-0.466-0.301-1.084-0.164-1.382,0.3  L79.021,41H62.182c0.966-1.258,1.294-2.762,0.9-4.294C62.506,34.468,60.408,33,57.98,33H44.408l-8.083-7.837  c-1.529-1.812-3.857-2.689-6.234-2.269c-2.525,0.446-4.533,2.236-5.235,4.692l-8.302,27.267c-0.38,1.325-0.395,2.651-0.043,3.946  c1.062,3.918,4.156,6.2,8.277,6.2h18.336l3.08,23.412c0.449,2.374,2.55,4.191,4.885,4.191l0.176,0.019  c0.079,0.003,0.165,0.014,0.258,0.014c0.149,0,0.316-0.005,0.495-0.04c2.692-0.51,4.471-3.103,3.974-5.733L52.531,61.492z   M51.647,90.635c-0.064,0.013-0.179,0.007-0.304,0.003c-0.085-0.004-0.17-0.007-0.255-0.007c-1.391,0-2.646-1.091-2.911-2.481  l-3.115-23.688C44.956,63.659,44.266,63,43.457,63H24.788c-1.887,0-5.22-0.566-6.348-4.727c-0.256-0.942-0.243-1.929,0.035-2.901  l8.299-27.257c0.494-1.731,1.898-2.994,3.664-3.307c0.287-0.05,0.572-0.072,0.854-0.072c1.37,0,2.649,0.683,3.531,1.747L43.605,35  H57.98c1.491,0,2.821,0.872,3.164,2.204c0.242,0.938,0.038,1.887-0.559,2.657C60.01,40.604,59.165,41,58.27,41H43.009  c-1.374,0-2.534-0.934-3.084-1.46l-3.558-3.621c-0.381-0.388-0.926-0.543-1.452-0.415c-0.526,0.129-0.937,0.514-1.096,1.032  l-5.57,18.102c-0.166,0.54-0.064,1.158,0.271,1.613S29.395,57,29.96,57h15.303c2.264,0,4.49,1.774,5.208,4.169l3.547,26.028  C54.319,88.795,53.255,90.33,51.647,90.635z"/><path d="M97,45H39v5h27v43h28V50h3V45z M92,91H68V50h24V91z M95,48h-0.883H66.479H41v-1h54V48z"/><path d="M40,67H15.208c-0.618,0-1.177,0.049-1.595,0.442C11.985,65.925,10.439,64.159,10,62c2.187,0,3-0.969,3-2.72V35.145  C13,33.857,11.498,33,10.211,33H8.217C6.93,33,6,33.857,6,35.145V59.28C6,60.813,6.656,62,8.217,62h0.196  C8.925,65,11,67.295,13,69.234v1.699C13,72.22,13.922,73,15.208,73H26v12.277c-4.58,0.277-8.599,3.27-10.132,7.633  c-0.184,0.521,0.091,1.093,0.611,1.275c0.521,0.186,1.092-0.091,1.275-0.611c1.252-3.564,4.513-6.024,8.245-6.297V93  c0,0.553,0.447,1,1,1s1-0.447,1-1v-5.654c3.473,0.484,6.45,2.861,7.632,6.228c0.145,0.412,0.53,0.669,0.943,0.669  c0.11,0,0.222-0.018,0.331-0.057c0.521-0.183,0.796-0.754,0.612-1.274c-1.464-4.167-5.196-7.082-9.519-7.578V73h12  c1.287,0,2-0.78,2-2.067v-1.994C42,67.652,41.287,67,40,67z M11,59.667C11,59.851,10.85,60,10.666,60H8.334  C8.15,60,8,59.851,8,59.667V35.333C8,35.149,8.15,35,8.334,35h2.332C10.85,35,11,35.149,11,35.333V59.667z M40,70.666  C40,70.85,39.85,71,39.666,71H15.334C15.15,71,15,70.85,15,70.666v-1.332C15,69.15,15.15,69,15.334,69h24.332  C39.85,69,40,69.15,40,69.334V70.666z"/><text x="0" y="115" fill="#000000" font-size="5px" font-weight="bold" font-family="'Helvetica Neue', Helvetica, Arial-Unicode, Arial, Sans-serif">Created by Laymik</text><text x="0" y="120" fill="#000000" font-size="5px" font-weight="bold" font-family="'Helvetica Neue', Helvetica, Arial-Unicode, Arial, Sans-serif">from the Noun Project</text></svg>