<svg xmlns="http://www.w3.org/2000/svg" xmlns:xlink="http://www.w3.org/1999/xlink" version="1.1" x="0px" y="0px" viewBox="0 0 100 125" enable-background="new 0 0 100 100" xml:space="preserve"><g display="none"><rect x="55" y="55" display="inline" width="10" height="10"/><rect x="45" y="45" display="inline" width="10" height="10"/><rect x="35" y="35" display="inline" width="10" height="10"/><rect x="25" y="25" display="inline" width="10" height="10"/><rect x="15" y="25" display="inline" width="10" height="10"/><rect x="5" y="5" display="inline" width="10" height="10"/><rect x="5" y="25" display="inline" width="10" height="10"/><rect x="5" y="35" display="inline" width="10" height="10"/><rect x="25" y="5" display="inline" width="10" height="10"/><rect x="35" y="5" display="inline" width="10" height="10"/><rect x="45" y="5" display="inline" width="10" height="10"/><rect x="5" y="45" display="inline" width="10" height="10"/><rect x="65" y="65" display="inline" width="10" height="10"/><rect x="75" y="75" display="inline" width="10" height="10"/><rect x="85" y="85" display="inline" width="10" height="10"/><rect x="75" y="85" display="inline" width="10" height="10"/><rect x="65" y="75" display="inline" width="10" height="10"/><rect x="55" y="65" display="inline" width="10" height="10"/><rect x="45" y="55" display="inline" width="10" height="10"/><rect x="35" y="45" display="inline" width="10" height="10"/><rect x="25" y="35" display="inline" width="10" height="10"/><rect x="5" y="15" display="inline" width="10" height="10"/><rect x="15" y="5" display="inline" width="10" height="10"/><rect x="15" y="15" display="inline" width="10" height="10"/><rect x="5" y="55" display="inline" width="10" height="10"/><rect x="55" y="5" display="inline" width="10" height="10"/></g><g><path d="M36.358,76.463l-22.32-1.194L9.435,49.417c-0.198-1.113-1.254-1.863-2.375-1.657c-1.114,0.198-1.856,1.261-1.658,2.375   l4.889,27.453c0.167,0.937,0.957,1.635,1.908,1.686l1.53,0.082v13.34c0,1.132,0.918,2.048,2.047,2.048   c1.131,0,2.048-0.918,2.048-2.048V79.575l12.125,0.647v12.73c0,1.132,0.917,2.048,2.048,2.048c1.13,0,2.047-0.918,2.047-2.048   V80.441l2.096,0.111c0.036,0.002,0.073,0.003,0.11,0.003c1.081,0,1.985-0.847,2.043-1.939   C38.356,77.488,37.489,76.522,36.358,76.463z"/><path d="M45.596,55.268c-1.132,0-2.048,0.917-2.048,2.047c0,1.131,0.917,2.048,2.048,2.048h8.424v33.333   c0,1.132,0.918,2.048,2.048,2.048c1.131,0,2.048-0.918,2.048-2.048V59.363h18.848v33.333c0,1.132,0.917,2.048,2.047,2.048   c1.13,0,2.048-0.918,2.048-2.048V59.363h11.523c1.132,0,2.048-0.917,2.048-2.048c0-1.13-0.916-2.047-2.048-2.047H45.596z"/><circle cx="19.4" cy="23.935" r="7.975"/><path d="M50.163,87.881l-2.465-19.334l-0.086-0.088c-0.301-1.364-1.373-2.436-2.731-2.742l-0.005-0.004l-0.019-0.004   c-0.034-0.006-0.067-0.01-0.102-0.017l-16.436-2.905l-2.626-14.285l21.245,5.469c0.107,0.032,0.212,0.065,0.324,0.085l0.043,0.012   l0.004-0.008c0.204,0.036,0.41,0.065,0.625,0.065c2.069,0,3.745-1.677,3.745-3.745c0-1.726-1.173-3.16-2.758-3.598l0.006-0.015   L18.123,35.799c-0.046-0.021-0.098-0.032-0.147-0.052l-0.493-0.177l-0.021,0.018c-0.46-0.131-0.941-0.224-1.445-0.224   c-2.946,0-5.336,2.39-5.336,5.336c0,0.076,0.02,0.147,0.022,0.221l-0.022,0.02l0.062,0.365c0.024,0.23,0.059,0.464,0.112,0.682   l4.31,25.979c0.506,2.565,2.64,4.519,5.279,4.805l0.073,0.067l19.35,1.571l1.299,14.198l0.043-0.002   c0.213,2.289,2.118,4.089,4.463,4.089c2.487,0,4.504-2.015,4.504-4.505c0-0.104-0.024-0.206-0.031-0.308L50.163,87.881z"/></g><text x="0" y="115" fill="#000000" font-size="5px" font-weight="bold" font-family="'Helvetica Neue', Helvetica, Arial-Unicode, Arial, Sans-serif">Created by Universal Icons</text><text x="0" y="120" fill="#000000" font-size="5px" font-weight="bold" font-family="'Helvetica Neue', Helvetica, Arial-Unicode, Arial, Sans-serif">from the Noun Project</text></svg>